# xmcd
#
# Track frame offsets:
#	150
#	10742
#	35087
#	44863
#	70106
#	92554
#	113976
#	139087
#	153935
#	172438
#	202080
#	223097
#	241462
#	250455
#	271498
#	294189
#
# Disc length: 4279 seconds
#
# Revision: 1
# Processed by: cddbd v1.4PL0 Copyright (c) Steve Scherf et al.
# Submitted via: audiograbber 1.81.02
#
DISCID=fb10b510
DTITLE=Kid Magic Rock and Other Various Artists - Beats, Rhymes and Cuts Vol. 1
DYEAR=1998
DGENRE=Rap
TTITLE0=Cuts Like a Knife - Kid Magic
TTITLE1=Something for Nothin' - Architects
TTITLE2=Cuttin' Up The Beat - Kid Magic
TTITLE3=Workers of Inequity - Rush
TTITLE4=Commin'Up - Ghetto Divas
TTITLE5=Raise The Roof - Phizz Ed
TTITLE6=Nerve Wrecken - H.H.C.
TTITLE7=Bitches, Blunts, All That - O.P.C.
TTITLE8=Simulated Hustlin' - Most ill Crew
TTITLE9=Definition of a Renegade - Rush
TTITLE10=Drastic Measures - C.O.S.S. G. Click
TTITLE11=I Don't Give a Damb - Phizz Ed
TTITLE12=It's My Turn 2 Cut it Up - Kid Magic
TTITLE13=C.O. Life- Sandman and C - Note
TTITLE14=House On a Hill - Architects
TTITLE15=You Can't Win - 40 Drop feat: O.P.C. and Bell'e Mafia
EXTD=
EXTT0=
EXTT1=
EXTT2=
EXTT3=
EXTT4=
EXTT5=
EXTT6=
EXTT7=
EXTT8=
EXTT9=
EXTT10=
EXTT11=
EXTT12=
EXTT13=
EXTT14=
EXTT15=
PLAYORDER=
